<svg xmlns="http://www.w3.org/2000/svg" aria-hidden="true" style="position:absolute;width:0;height:0;overflow:hidden">
  <defs>
<symbol id="icon-arrow-left" viewBox="0 0 32 32">
      <path d="m12.586 27.414-10-10a2 2 0 0 1 0-2.828l10-10a2 2 0 1 1 2.828 2.828L8.828 14H28a2 2 0 1 1 0 4H8.828l6.586 6.586c.39.39.586.902.586 1.414s-.195 1.024-.586 1.414a2 2 0 0 1-2.828 0z"/>
    </symbol>
    <symbol id="icon-arrow" viewBox="0 0 32 32">
      <path fill="none" stroke="#fafafa" stroke-width="3.2" d="m24 12-8 8-8-8" style="stroke:var(--color1, #fafafa)"/>
    </symbol>
    <symbol id="icon-close" viewBox="0 0 32 32">
      <path  stroke="#fafafa" stroke-linejoin="round" stroke-linecap="round" stroke-miterlimit="4" stroke-width="2.9091" d="M24 8l-16 16M8 8l16 16"></path>
      </symbol>
      </defs>
</svg>

